# xmcd
#
# Track frame offsets: 
#        150
#        20950
#        36571
#        61313
#        77755
#        114520
#        134377
#        154229
#        176210
#        194344
#
# Disc length: 2801 seconds
#
# Revision: 0
# Processed by: cddbd v1.5.1PL0 Copyright (c) Steve Scherf et al.
# Submitted via: ExactAudioCopy v0.95a5
#
DISCID=910aef0a
DTITLE=Dwayne Dopsie and the Zydeco Hellraisers - Dopsie strikes
DYEAR=2001
DGENRE=General Blues
TTITLE0=Mom and pop
TTITLE1=Sweet little angel girl
TTITLE2=You're the only one I need
TTITLE3=Don't be a fool
TTITLE4=Lost the best friend I ever had
TTITLE5=Tighten up zydeco
TTITLE6=How much else can I lose
TTITLE7=Country girl
TTITLE8=Corn fields
TTITLE9=Rock house
EXTD=
EXTT0=
EXTT1=
EXTT2=
EXTT3=
EXTT4=
EXTT5=
EXTT6=
EXTT7=
EXTT8=
EXTT9=
PLAYORDER=
